<?xml version="1.0" standalone="no"?>
<!DOCTYPE svg PUBLIC "-//W3C//DTD SVG 20010904//EN"
 "http://www.w3.org/TR/2001/REC-SVG-20010904/DTD/svg10.dtd">
<svg version="1.0" xmlns="http://www.w3.org/2000/svg"
 width="83.790000pt" height="71.050000pt" viewBox="0 0 171.000000 145.000000"
 preserveAspectRatio="xMidYMid meet">
<metadata>
Created by potrace 1.10, written by Peter Selinger 2001-2011
</metadata>
<g transform="translate(0.000000,145.000000) scale(0.100000,-0.100000)"
fill="#000000" stroke="none">
<path d="M1261 1149 c-5 -13 -20 -51 -34 -84 -46 -112 -50 -130 -33 -163 12
-23 13 -37 5 -60 l-10 -30 -47 47 c-53 53 -127 91 -189 99 -35 4 -42 8 -40 24
3 26 -30 49 -42 29 -5 -7 -6 -21 -4 -31 4 -14 -4 -18 -41 -23 -52 -7 -114 -36
-166 -77 -32 -26 -38 -27 -60 -14 -14 7 -50 13 -81 14 -32 0 -63 6 -75 15 -10
8 -30 15 -42 15 -15 0 -26 7 -29 20 -6 23 -33 27 -33 5 0 -8 -4 -15 -10 -15
-5 0 -10 -7 -10 -15 0 -9 9 -15 24 -15 36 0 113 -55 142 -101 14 -22 36 -45
49 -51 14 -6 25 -14 25 -18 0 -18 -15 -17 -44 4 -17 13 -46 28 -65 35 -46 15
-71 -6 -71 -60 0 -29 6 -43 31 -63 17 -14 40 -28 52 -31 12 -2 31 -6 42 -8 12
-3 6 -5 -13 -6 -36 -1 -90 22 -109 48 -7 9 -17 30 -22 46 -9 30 -9 30 -10 4
-1 -15 9 -39 21 -54 41 -53 58 -55 429 -55 l342 0 -6 74 c-7 96 -44 173 -112
233 -57 50 -33 47 36 -4 77 -58 139 -178 139 -270 0 -26 4 -33 19 -33 14 0 23
13 35 49 16 51 145 286 234 429 57 91 60 102 35 102 -53 0 -236 -268 -249
-366 -7 -47 -24 -94 -34 -94 -4 0 -14 19 -23 42 -22 55 -7 112 35 134 34 18
58 63 92 175 42 139 26 134 -20 -6 -26 -80 -44 -113 -44 -84 0 9 11 49 25 89
14 41 24 79 22 85 -2 5 -16 -28 -32 -75 -30 -91 -32 -96 -40 -88 -3 3 8 44 25
93 17 48 29 89 27 91 -2 2 -19 -35 -37 -83 -38 -99 -38 -99 -46 -90 -3 3 9 44
26 92 18 47 30 88 27 92 -4 3 -11 -5 -16 -18z m-335 -225 c82 -34 167 -163
168 -254 l1 -45 -272 -3 -273 -2 0 23 c0 13 7 32 15 43 21 27 18 47 -9 77 -27
30 -43 67 -27 67 5 0 13 -5 16 -10 4 -6 10 -8 15 -5 5 3 11 1 15 -5 7 -12 52
-14 57 -2 8 18 122 86 180 107 78 29 69 28 114 9z m-337 -65 c17 -6 31 -16 31
-21 0 -11 -10 -9 -75 16 -34 13 -36 15 -14 16 14 0 40 -5 58 -11z m-77 -181
c15 -17 27 -32 25 -33 -11 -6 -117 9 -117 17 0 5 12 8 28 6 23 -3 27 0 25 20
-4 30 5 28 39 -10z"/>
<path d="M480 545 c0 -12 18 -15 104 -15 101 0 104 -1 121 -26 16 -25 16 -29
1 -61 -9 -18 -16 -51 -16 -72 0 -22 -6 -44 -15 -51 -22 -18 -19 -24 18 -42
l34 -16 75 72 c57 55 98 84 169 119 121 59 98 72 -35 18 -125 -51 -149 -56
-170 -36 -9 9 -16 27 -16 40 0 13 -4 27 -10 30 -25 15 -5 25 50 25 33 0 60 -1
60 -3 0 -2 -9 -21 -19 -43 -11 -21 -18 -40 -17 -42 2 -1 24 6 50 15 32 12 53
27 62 46 9 16 23 27 36 27 21 0 21 0 2 -21 l-19 -22 35 19 c28 15 64 20 180
24 89 3 144 9 143 15 -2 6 -150 11 -413 13 -360 2 -410 0 -410 -13z m299 -169
c-36 -43 -59 -66 -59 -57 0 5 5 13 10 16 6 4 7 12 1 22 -4 9 -6 24 -4 33 4 15
9 16 33 7 18 -7 24 -14 19 -21z"/>
<path d="M588 249 c-21 -21 -38 -40 -38 -42 0 -10 156 7 169 18 11 11 5 18
-37 39 -28 14 -53 25 -54 25 -2 -1 -20 -19 -40 -40z"/>
</g>
</svg>
